<?xml version="1.0" encoding="UTF-8"?>
<svg width="22px" height="21px" viewBox="0 0 22 21" version="1.1" xmlns="http://www.w3.org/2000/svg" xmlns:xlink="http://www.w3.org/1999/xlink">
    <!-- Generator: Sketch 43.2 (39069) - http://www.bohemiancoding.com/sketch -->
    <title>github-icon</title>
    <desc>Created with Sketch.</desc>
    <defs></defs>
    <g id="Page-1" stroke="none" stroke-width="1" fill="none" fill-rule="evenodd">
        <path d="M20.5031982,5.34584615 C19.5205649,3.70128671 18.1876856,2.39928671 16.5042096,1.43955245 C14.8204829,0.479769231 12.9823554,0 10.9885239,0 C8.99494305,0 7.15621412,0.479916084 5.47283827,1.43955245 C3.78921185,2.39923776 2.45638269,3.70128671 1.47374943,5.34584615 C0.491266515,6.99035664 0,8.78617483 0,10.7332517 C0,13.0721329 0.698587699,15.1753147 2.0961139,17.0433357 C3.49348975,18.9115035 5.29869248,20.2042028 7.51157175,20.9215804 C7.76915718,20.9682797 7.95984055,20.9354336 8.08382232,20.8238741 C8.20785421,20.7121678 8.26979499,20.5722657 8.26979499,20.4047552 C8.26979499,20.3768042 8.26733941,20.1253427 8.26257859,19.6500769 C8.25766743,19.1748112 8.25536219,18.7601958 8.25536219,18.4064266 L7.92626424,18.462035 C7.71643736,18.4995804 7.45173576,18.5154895 7.13215945,18.510986 C6.81273349,18.5066294 6.48112984,18.4739301 6.13779954,18.4131329 C5.79431891,18.3528741 5.47484282,18.2131189 5.17912073,17.9941608 C4.88354897,17.7752028 4.6737221,17.4885944 4.54969021,17.1347762 L4.40661503,16.8131678 C4.31124829,16.5990559 4.16110706,16.3612028 3.95599089,16.1004895 C3.75087472,15.8395315 3.5434533,15.6626224 3.33362642,15.5694685 L3.23344875,15.4994196 C3.16669704,15.4528671 3.10475626,15.3967203 3.04747608,15.3315664 C2.99024601,15.2664126 2.94739863,15.2012098 2.9187836,15.1359091 C2.89011845,15.0705594 2.91387244,15.016958 2.99029613,14.9749091 C3.06671982,14.9328601 3.20483371,14.9124476 3.40523918,14.9124476 L3.69128929,14.9542028 C3.88207289,14.9915524 4.11805923,15.1031119 4.39954897,15.2895664 C4.68088838,15.4758741 4.91216401,15.7180839 5.09342597,16.0160979 C5.31292483,16.3982098 5.57737585,16.6893706 5.88753075,16.8897273 C6.19743508,17.0900839 6.50989522,17.1900909 6.82461048,17.1900909 C7.13932574,17.1900909 7.41114351,17.1667902 7.64016401,17.1204336 C7.86893394,17.0738322 8.08357175,17.0037832 8.28397722,16.9106783 C8.36982232,16.2861608 8.60355353,15.8063916 8.98497039,15.471028 C8.44133485,15.4152238 7.95257403,15.3311748 7.51843736,15.2194196 C7.08455125,15.1075175 6.63618223,14.9259091 6.17363098,14.6741049 C5.71082916,14.4226434 5.32690661,14.1103846 5.0217631,13.7378671 C4.71656948,13.3651538 4.46610023,12.8758392 4.27070615,12.2703636 C4.07521185,11.6646434 3.97743964,10.9659161 3.97743964,10.173986 C3.97743964,9.0463986 4.35429613,8.08686014 5.10785877,7.29483217 C4.75485649,6.4470979 4.78818223,5.49676224 5.20793622,4.44392308 C5.48456492,4.35997203 5.89479727,4.42297203 6.4384328,4.63253147 C6.98216856,4.84218881 7.38027335,5.02179021 7.63314806,5.1706993 C7.88602278,5.31955944 8.08863326,5.44570629 8.24128018,5.54801399 C9.1285467,5.30585315 10.0441777,5.18474825 10.9884237,5.18474825 C11.9326697,5.18474825 12.8485011,5.30585315 13.7358178,5.54801399 L14.2795034,5.21274825 C14.6512984,4.98904196 15.0903462,4.78403497 15.5955945,4.59767832 C16.1011435,4.41141958 16.4877221,4.36011888 16.7549294,4.44406993 C17.1840046,5.49695804 17.2222415,6.44724476 16.869139,7.29497902 C17.6226515,8.08700699 17.9996583,9.04679021 17.9996583,10.1741329 C17.9996583,10.9660629 17.9015353,11.666993 17.7063417,12.2773636 C17.5108975,12.8878322 17.2582733,13.3766573 16.948369,13.7448671 C16.6381139,14.113028 16.2517358,14.4228392 15.7891845,14.6742517 C15.326533,14.9258601 14.8780137,15.1074685 14.4441276,15.2193706 C14.010041,15.3312727 13.5212802,15.4153706 12.9776446,15.4712727 C13.4734715,15.8903916 13.7214351,16.551965 13.7214351,17.4556993 L13.7214351,20.4043636 C13.7214351,20.5718741 13.7810706,20.7117273 13.9004419,20.8234825 C14.0196629,20.935042 14.2079408,20.9678881 14.4655262,20.9211399 C16.6787062,20.2038601 18.4839089,18.9111119 19.8812346,17.0429441 C21.27841,15.1749231 21.9772483,13.0717413 21.9772483,10.7328601 C21.9767472,8.78602797 21.4852301,6.99035664 20.5031982,5.34584615 Z" id="github-icon" fill="#67777B" fill-rule="nonzero"></path>
    </g>
</svg>