<?xml version="1.0" encoding="UTF-8"?>
<svg width="304px" height="151px" viewBox="0 0 304 151" version="1.1" xmlns="http://www.w3.org/2000/svg" xmlns:xlink="http://www.w3.org/1999/xlink">
    <!-- Generator: Sketch 43.2 (39069) - http://www.bohemiancoding.com/sketch -->
    <title>react-airship-blue</title>
    <desc>Created with Sketch.</desc>
    <defs></defs>
    <g id="Page-1" stroke="none" stroke-width="1" fill="none" fill-rule="evenodd">
        <g id="react-airship-blue" fill="#6BCFFF">
            <path d="M167.210286,43.0768178 L167.210286,43.0768178 C166.797143,43.2145466 166.373714,43.3482416 165.941714,43.47675 C164.985714,40.4253941 163.696571,37.1815636 162.118286,33.8293941 C163.624571,30.55675 164.864571,27.354411 165.793143,24.3226483 C166.565714,24.5485466 167.315429,24.7859704 168.037714,25.0366483 C175.026286,27.46275 179.288571,31.0500382 179.288571,33.8132585 C179.288571,36.757428 174.684571,40.5792585 167.210286,43.0768178 M164.472,59.3253602 C164.021714,61.7699026 163.117714,63.40075 161.999429,64.053089 C159.619429,65.4424788 154.530286,63.6364449 149.041714,58.8735636 C148.412571,58.3278348 147.778286,57.7446483 147.142857,57.1280382 C149.270286,54.7808856 151.397143,52.0522416 153.472571,49.0222077 C157.123429,48.6954619 160.572571,48.1612585 163.7,47.4328517 C163.853714,48.0592585 163.990857,48.6735636 164.108571,49.2746144 C164.864571,53.1246822 164.972571,56.6047839 164.472,59.3253602 M144.882286,54.7993263 C143.353143,53.1350551 141.828571,51.2950212 140.339429,49.3155297 C141.784571,49.3731568 143.258857,49.4025466 144.757143,49.4025466 C146.296,49.4025466 147.817714,49.3673941 149.316,49.2999704 C147.844571,51.3151907 146.360571,53.158106 144.882286,54.7993263 M141.198286,58.4765127 C138.268,61.0593602 135.332,62.8913263 132.745143,63.8127839 L132.744571,63.8127839 C130.419429,64.6414619 128.567429,64.665089 127.448,64.0139026 C125.066286,62.6291229 124.076571,57.2795975 125.426857,50.1061738 C125.587429,49.2590551 125.770857,48.4159704 125.978286,47.5780721 C129.071429,48.2678687 132.494857,48.7640382 136.154286,49.0636992 C138.244,52.0286144 140.431429,54.7538009 142.636571,57.1401399 C142.168,57.5971229 141.688,58.0431568 141.198286,58.4765127 M123.716,43.6473263 C123.089714,43.4663771 122.468,43.2704449 121.852,43.0589534 C118.169714,41.7900043 115.128571,40.1401399 113.044571,38.3404449 C111.171429,36.7228517 110.225714,35.1167839 110.225714,33.8132585 C110.225714,31.0402416 114.325143,27.5036653 121.162857,25.0994619 C122.021143,24.7986483 122.888,24.5243432 123.761714,24.2748178 C124.706857,27.3745805 125.946286,30.6155297 127.442286,33.8922077 C125.926857,37.2184449 124.669714,40.5112585 123.716,43.6473263 M127.398286,3.77742799 C129.924571,2.30217376 135.510286,4.40556359 141.398857,9.67786867 C141.774857,10.014411 142.152571,10.367089 142.531429,10.7324449 C140.338286,13.108411 138.170286,15.8128517 136.099429,18.7604788 C132.547429,19.092411 129.148,19.6260382 126.022286,20.3400382 C125.829714,19.5620721 125.656571,18.7800721 125.503429,17.9934619 L125.503429,17.9940382 C124.083429,10.6788517 125.026286,5.16163138 127.398286,3.77742799 M144.793143,13.0571229 C146.281143,14.6833602 147.770857,16.4980382 149.237143,18.4671568 C146.264,18.3259704 143.285143,18.3248178 140.312,18.465428 C141.778857,16.5141738 143.281714,14.7018009 144.793143,13.0571229 M160.248571,30.0680721 C159.550857,28.7322755 158.826857,27.4108856 158.076571,26.1050551 C157.338286,24.8188178 156.572571,23.5492924 155.78,22.2964788 C158.189714,22.6036314 160.498286,23.0116314 162.665714,23.510106 C162.014857,25.6134958 161.204,27.8131229 160.248571,30.0680721 M158.089714,41.6349873 C158.849143,40.306106 159.579429,38.961089 160.279429,37.5999365 C161.289143,39.9200043 162.139429,42.1645805 162.815429,44.299089 C160.626286,44.80275 158.262286,45.2084449 155.770857,45.510411 C156.569714,44.2339704 157.342286,42.9419704 158.089714,41.6349873 M131.008,33.8916314 C132.001714,31.8049534 133.073143,29.7574619 134.22,27.7520382 L134.22,27.7526144 C135.365714,25.747767 136.587429,23.7861399 137.881143,21.8746483 C140.126857,21.7029195 142.429714,21.6135975 144.757143,21.6135975 C147.095429,21.6135975 149.401143,21.7034958 151.646286,21.8763771 C152.926857,23.7849873 154.140571,25.7396992 155.284571,27.73475 C156.435429,29.7361399 157.521143,31.7738348 158.54,33.8449534 C157.531429,35.9379704 156.449143,37.9946822 155.294857,40.0099026 C154.150857,42.0135975 152.942857,43.9792585 151.672571,45.9040043 C149.432,46.0659365 147.116571,46.1489195 144.757143,46.1489195 C142.407429,46.1489195 140.121714,46.0751568 137.92,45.931089 C136.616571,44.0109534 135.385714,42.0418348 134.229143,40.027767 C133.079429,38.0240721 132.004571,35.9771568 131.008,33.8916314 M129.293143,30.065767 C128.353714,27.8183093 127.549714,25.6088856 126.893143,23.4755297 C129.048,22.9897331 131.345714,22.592106 133.739429,22.2907161 C132.937714,23.5510212 132.166286,24.8303432 131.424571,26.1275297 C130.683429,27.4229873 129.973143,28.7363093 129.293143,30.065767 M129.296571,37.7169195 C129.98,39.0469534 130.693714,40.3608517 131.437143,41.6574619 C132.197143,42.9800043 132.987429,44.284106 133.808571,45.5680382 C131.335429,45.2902755 129.002857,44.9128178 126.849143,44.4396992 C127.515429,42.2688856 128.337143,40.0122077 129.296571,37.7169195 M148.790286,9.12464833 C154.365143,4.23152969 159.576,2.2992924 161.949714,3.68061443 C164.478286,5.1512585 165.461714,11.0816653 163.873143,18.8601738 C163.769143,19.3661399 163.655429,19.8709534 163.533143,20.3740382 C160.401143,19.6444788 156.998857,19.1016314 153.436571,18.765089 C151.362286,15.785767 149.212,13.0755636 147.053714,10.7307161 C147.619429,10.1809534 148.198286,9.64502121 148.790286,9.12464833 M169.088,21.9605127 L169.088,21.9605127 C168.284571,21.68275 167.473714,21.4251568 166.657143,21.1883093 C166.792571,20.6333602 166.917714,20.076106 167.032571,19.5159704 C168.872571,10.5076992 167.669714,3.2512924 163.561143,0.862072062 C159.622286,-1.4286059 153.178857,0.960038163 146.672571,6.67030935 C146.031429,7.23447884 145.404571,7.81478393 144.792571,8.41064833 C144.382286,8.01417376 143.965143,7.62519071 143.540571,7.24485172 C136.721714,1.13868223 129.886286,-1.43436862 125.781714,0.961766977 C121.846286,3.25878393 120.680571,10.0818348 122.337714,18.6187161 C122.502286,19.464106 122.688571,20.3048856 122.895429,21.1410551 C121.928571,21.4182416 120.994286,21.7132924 120.100571,22.0273602 C112.105714,24.838411 107,29.2440043 107,33.8132585 C107,38.5329195 112.481143,43.2669873 120.808571,46.1373941 C121.484,46.3690551 122.164571,46.583428 122.850286,46.781089 C122.627429,47.6812246 122.429714,48.5876992 122.257143,49.4999365 C120.677714,57.8881399 121.911429,64.5492585 125.836571,66.8330212 C129.890286,69.1899704 136.694857,66.76675 143.320571,60.9262416 C143.844,60.4646483 144.369714,59.9742416 144.896571,59.4613602 C145.559429,60.1067839 146.24,60.7331907 146.937143,61.339428 C153.355429,66.909089 159.694286,69.1582755 163.616,66.86875 C167.666286,64.5043093 168.982857,57.34875 167.273143,48.6424449 C167.142857,47.9780043 166.990857,47.2985805 166.82,46.6070551 C167.298286,46.4647161 167.767429,46.317767 168.224571,46.1644788 C176.881714,43.27275 182.513714,38.5963093 182.513714,33.8132585 C182.513714,29.2272924 177.244,24.7923093 169.088,21.9605127" id="Fill-1-Copy"></path>
            <path d="M144.743429,40.6011525 C148.468,40.6011525 151.486286,37.5561356 151.486286,33.8 C151.486286,30.0450169 148.468,27 144.743429,27 C141.018857,27 138,30.0450169 138,33.8 C138,37.5561356 141.018857,40.6011525 144.743429,40.6011525" id="Fill-3-Copy"></path>
            <path d="M159.836713,101.6325 C156.740238,93.5075 148.216781,86.8775 146.27741,86.8775 L145.951465,86.8775 C143.995796,86.8775 135.488637,93.5075 132.392161,101.6325 C131.561002,103.82625 135.651609,134.555 136.613146,139.08875 C136.655244,139.626622 137.070483,140.06102 137.607278,140.12875 L142.49645,140.12875 C142.333478,138.6175 142.219397,137.0575 142.105316,135.54625 C141.690675,131.225702 141.505714,126.886297 141.55121,122.54625 C142.382369,120.515 144.533605,117.80125 146.130735,117.80125 L146.130735,117.80125 C147.760459,117.80125 149.862803,120.515 150.710259,122.51375 C151.068798,123.39125 150.384314,132.605 149.634641,140.06375 L154.523813,140.06375 C155.060608,139.99602 155.475848,139.561622 155.517945,139.02375 C156.544671,134.5225 160.651575,103.8425 159.820416,101.64875 L159.836713,101.6325 Z M150.954718,109.5625 C150.954718,110.03375 150.759151,110.0825 150.514692,109.80625 C149.433855,108.236026 147.915476,107.015805 146.147032,106.29625 L146.147032,106.29625 C144.389449,107.034051 142.875783,108.250484 141.779372,109.80625 C141.534913,110.13125 141.388238,110.0825 141.339346,109.5625 C141.339346,108.27875 141.225265,104.98 141.339346,104.76875 C142.447558,101.51875 145.511439,98.78875 146.228518,98.78875 L146.228518,98.78875 C146.945597,98.78875 149.960586,101.45375 151.11769,104.76875 C151.215701,106.365172 151.215701,107.966078 151.11769,109.5625 L150.954718,109.5625 Z" id="Shape" fill-rule="nonzero"></path>
            <path d="M164.253265,148.4325 C165.882989,146.8075 169.77803,131.87375 169.826921,127.73 C169.716534,126.414254 169.138595,125.181049 168.197197,124.2525 C165.861566,122.083685 163.311614,120.156347 160.586386,118.5 C159.836713,125.8775 157.881045,136.97625 157.489911,139.44625 C158.451448,141.965 162.183516,147.83125 164.253265,148.4975 L164.253265,148.4325 Z" id="Shape-3" fill-rule="nonzero"></path>
            <path d="M263.258998,93.36125 C261.906327,93.36125 186.205648,93.2475 180.990531,93.36125 C178.612404,93.3600746 176.322782,94.2604886 174.585715,95.88 C172.793019,97.505 161.384951,111.675 161.384951,111.805 C161.384951,112.715 161.189384,114.2425 161.140493,115.055 C161.091601,115.8675 161.254573,116.1275 162.020544,116.68 C162.379083,116.95625 164.041401,118.02875 164.644399,118.51625 C167.947777,114.898858 171.469068,111.485454 175.188713,108.295 C177.731083,106.1825 179.686752,105.77625 185.048544,105.77625 L250.954582,105.77625 C254.107095,106.123979 257.23048,104.909815 259.315066,102.52625 C261.626478,100.329745 263.539693,97.7513672 264.970208,94.905 C265.410234,93.995 265.084289,93.28 263.340484,93.28 L263.258998,93.36125 Z" id="Shape-5" fill-rule="nonzero"></path>
            <path d="M231.267516,108.1325 C229.914845,108.1325 187.704994,107.97 182.701741,107.97 C179.902907,107.713804 177.124533,108.639209 175.042038,110.52125 C173.249342,112.14625 165.8178,119.42625 165.899287,119.49125 C167.75464,120.941231 169.458216,122.574537 170.984025,124.36625 C172.092238,123.4075 173.086369,122.64375 174.602013,121.49 C177.225868,119.45875 180.175669,119.7025 185.504866,119.7025 L219.5498,119.865 C222.702314,120.212729 225.825698,118.998565 227.910285,116.615 C230.016612,114.670535 231.731344,112.343053 232.962429,109.7575 C233.402454,108.79875 233.07651,108.1325 231.218624,108.1325 L231.267516,108.1325 Z" id="Shape-7" fill-rule="nonzero"></path>
            <path d="M200.319057,121.92875 C198.966386,121.92875 185.081138,121.76625 180.077885,121.76625 C177.862328,121.578516 175.672491,122.347767 174.064204,123.87875 C173.248272,124.509144 172.485209,125.204779 171.78259,125.95875 C172.304102,127.795 171.78259,130.6225 171.228484,133.53125 C172.222616,133.53125 186.498998,133.69375 188.73172,133.69375 C191.884233,134.041479 195.007618,132.827315 197.092204,130.44375 C199.198532,128.499285 200.913264,126.171803 202.144348,123.58625 C202.584374,122.595 202.258429,121.96125 200.400544,121.96125 L200.319057,121.92875 Z" id="Shape-9" fill-rule="nonzero"></path>
            <path d="M149.210913,123.29375 C148.702946,121.702325 147.623469,120.353997 146.179626,119.5075 L146.179626,119.5075 C144.735784,120.353997 143.656307,121.702325 143.14834,123.29375 C142.985367,123.81375 144.060985,145.28 145.055117,148.8225 C145.250684,149.505 145.886276,150.7725 146.212221,150.7725 C146.764331,150.236163 147.163649,149.563217 147.369325,148.8225 C148.200484,145.94625 149.439074,123.81375 149.276102,123.29375 L149.210913,123.29375 Z" id="Shape-10" fill-rule="nonzero"></path>
            <path d="M60.9613588,108.1325 C62.3140297,108.1325 104.523881,107.97 109.527134,107.97 C112.304061,107.732377 115.055077,108.656535 117.121648,110.52125 C118.914344,112.14625 126.345885,119.42625 126.264399,119.49125 C124.409046,120.941231 122.70547,122.574537 121.17966,124.36625 C120.071448,123.4075 119.077316,122.64375 117.561673,121.49 C114.937817,119.45875 111.988017,119.7025 106.65882,119.7025 L72.6138854,119.865 C69.4613719,120.212729 66.3379874,118.998565 64.2534013,116.615 C62.1470735,114.670535 60.4323414,112.343053 59.2012569,109.7575 C58.8101231,108.79875 59.0871762,108.1325 60.9450616,108.1325 L60.9613588,108.1325 Z" id="Shape-15" fill-rule="nonzero"></path>
            <path d="M91.9261146,121.92875 C93.2787856,121.92875 107.164034,121.76625 112.167287,121.76625 C114.382844,121.578516 116.572681,122.347767 118.180968,123.87875 C119.019443,124.506344 119.804389,125.202051 120.527771,125.95875 C120.006259,127.795 120.527771,130.6225 121.081877,133.53125 C120.087745,133.53125 105.811363,133.69375 103.578641,133.69375 C100.426128,134.041479 97.3027433,132.827315 95.2181571,130.44375 C93.1602876,128.492593 91.4904436,126.171511 90.2963907,123.6025 C89.8563652,122.61125 90.18231,121.9775 92.0401953,121.9775 L91.9261146,121.92875 Z" id="Shape-17" fill-rule="nonzero"></path>
            <path d="M29.0350658,93.36125 C30.3877367,93.36125 106.088416,93.2475 111.303533,93.36125 C113.68166,93.3600746 115.971282,94.2604886 117.708348,95.88 C119.501045,97.505 130.909113,111.675 130.909113,111.805 C130.909113,112.715 131.104679,114.2425 131.153571,115.055 C131.202463,115.8675 131.03949,116.1275 130.27352,116.68 C129.914981,116.95625 128.252662,118.02875 127.649665,118.51625 C124.346287,114.898858 120.824995,111.485454 117.10535,108.295 C114.562981,106.1825 112.607312,105.77625 107.24552,105.77625 L41.4046709,105.77625 C38.2521575,106.123979 35.128773,104.909815 33.0441868,102.52625 C30.7327748,100.329745 28.8195597,97.7513672 27.3890446,94.905 C26.9490191,93.995 27.2260722,93.28 29.0187686,93.28 L29.0350658,93.36125 Z" id="Shape-18" fill-rule="nonzero"></path>
            <path d="M128.040798,148.4325 C126.411074,146.8075 122.516034,131.87375 122.467142,127.73 C122.577529,126.414254 123.155469,125.181049 124.096866,124.2525 C126.432498,122.083685 128.98245,120.156347 131.707677,118.5 C132.45735,125.8775 134.413019,136.97625 134.804153,139.44625 C133.842616,141.965 130.077953,147.83125 128.040798,148.4975 L128.040798,148.4325 Z" id="Shape-2" fill-rule="nonzero"></path>
            <path d="M290.345011,93.36125 L267.528875,93.36125 C267.251822,96.7575 261.727057,103.72875 258.141665,105.80875 L277.991703,105.80875 C281.144216,106.156479 284.267601,104.942315 286.352187,102.55875 C288.663599,100.362245 290.576814,97.7838672 292.007329,94.9375 C292.447355,94.0275 292.12141,93.3125 290.377605,93.3125 L290.345011,93.36125 Z" id="Shape-4" fill-rule="nonzero"></path>
            <path d="M258.353529,108.1325 L235.537393,108.1325 C235.26034,111.52875 230.371168,117.785 226.75318,119.865 L246.603219,119.865 C249.755732,120.212729 252.879117,118.998565 254.963703,116.615 C257.070031,114.670535 258.784763,112.343053 260.015847,109.7575 C260.488467,108.79875 260.17882,108.1325 258.386123,108.1325 L258.353529,108.1325 Z" id="Shape-6" fill-rule="nonzero"></path>
            <path d="M227.421367,121.92875 L204.605231,121.92875 C204.328178,125.325 199.439006,131.58125 195.821019,133.66125 L215.785138,133.66125 C218.937651,134.008979 222.061036,132.794815 224.145622,130.41125 C226.25195,128.466785 227.966682,126.139303 229.197766,123.55375 C229.670386,122.595 229.360739,121.92875 227.568042,121.92875 L227.421367,121.92875 Z" id="Shape-8" fill-rule="nonzero"></path>
            <path d="M146.147032,106.29625 L146.147032,106.29625 C144.378693,107.038265 142.850297,108.252939 141.73048,109.80625 C141.486021,110.13125 141.339346,110.0825 141.290454,109.5625 C141.290454,108.27875 141.176374,104.98 141.290454,104.76875 C142.398667,101.51875 145.462548,98.78875 146.179626,98.78875 L146.179626,98.78875 L146.179626,86.91 L146.016654,86.91 C144.060985,86.91 135.553826,93.54 132.45735,101.665 C131.626191,103.85875 135.716798,134.5875 136.678335,139.12125 C136.720433,139.659122 137.135672,140.09352 137.672467,140.16125 L142.561639,140.16125 C142.398667,138.65 142.284586,137.09 142.170505,135.57875 C141.755864,131.258202 141.570903,126.918797 141.616399,122.57875 C142.447558,120.5475 144.598794,117.83375 146.195924,117.83375 L146.195924,117.83375 L146.195924,106.29625 L146.147032,106.29625 Z" id="Shape-11" fill-rule="nonzero"></path>
            <path d="M146.114437,119.54 C144.661152,120.398303 143.580503,121.765475 143.083151,123.375 C142.920178,123.895 143.995796,145.36125 144.989928,148.90375 C145.185495,149.58625 145.821087,150.85375 146.147032,150.85375 L146.147032,150.85375 L146.147032,119.5725 L146.114437,119.54 Z" id="Shape-12" fill-rule="nonzero"></path>
            <path d="M1.94905308,93.36125 L24.765189,93.36125 C25.042242,96.7575 30.5670064,103.72875 34.1523992,105.80875 L14.237172,105.80875 C11.0846585,106.156479 7.96127404,104.942315 5.8766879,102.55875 C3.57411897,100.370675 1.66663228,97.8035816 0.237842887,94.97 C-0.23477707,94.06 0.0748704883,93.345 1.86756688,93.345 L1.94905308,93.36125 Z" id="Shape-13" fill-rule="nonzero"></path>
            <path d="M33.8916433,108.1325 L56.7077792,108.1325 C56.9848323,111.52875 61.8740042,117.785 65.4919915,119.865 L45.5930616,119.865 C42.4405481,120.212729 39.3171636,118.998565 37.2325775,116.615 C35.1262497,114.670535 33.4115176,112.343053 32.1804331,109.7575 C31.7404076,108.79875 32.0174607,108.1325 33.8101571,108.1325 L33.8916433,108.1325 Z" id="Shape-14" fill-rule="nonzero"></path>
            <path d="M64.8401019,121.92875 L87.6562378,121.92875 C87.9332909,125.325 92.8224628,131.58125 96.4404501,133.66125 L76.5415202,133.66125 C73.3890067,134.008979 70.2656222,132.794815 68.1810361,130.41125 C66.0747083,128.466785 64.3599762,126.139303 63.1288917,123.55375 C62.6888662,122.595 63.014811,121.92875 64.7586157,121.92875 L64.8401019,121.92875 Z" id="Shape-16" fill-rule="nonzero"></path>
            <path d="M303.050313,96.2698361 C303.050313,95.7305679 302.96326,95.2349244 302.789149,94.7828907 C302.615039,94.3308571 302.373663,93.9422726 302.065013,93.6171255 C301.756364,93.2919785 301.396278,93.0401916 300.984745,92.8617573 C300.573212,92.683323 300.130029,92.5941071 299.655183,92.5941071 C299.172423,92.5941071 298.723305,92.683323 298.307815,92.8617573 C297.892325,93.0401916 297.530261,93.2919785 297.221611,93.6171255 C296.912961,93.9422726 296.671585,94.3308571 296.497475,94.7828907 C296.323365,95.2349244 296.236311,95.7305679 296.236311,96.2698361 C296.236311,96.7773827 296.315451,97.2532004 296.473733,97.6973037 C296.632015,98.1414069 296.859541,98.5299914 297.15632,98.8630689 C297.453099,99.1961463 297.811206,99.4598286 298.230653,99.6541238 C298.6501,99.848419 299.124939,99.9455651 299.655183,99.9455651 C300.130029,99.9455651 300.573212,99.8563493 300.984745,99.6779149 C301.396278,99.4994806 301.756364,99.2476937 302.065013,98.9225467 C302.373663,98.5973997 302.615039,98.2107977 302.789149,97.7627293 C302.96326,97.3146608 303.050313,96.8170347 303.050313,96.2698361 Z M304,96.2698361 C304,96.935991 303.883269,97.5426586 303.649803,98.0898573 C303.416337,98.6370559 303.099778,99.1049434 302.700116,99.4935337 C302.300454,99.882124 301.837487,100.183475 301.311199,100.397596 C300.784912,100.611718 300.232912,100.718777 299.655183,100.718777 C299.014141,100.718777 298.426529,100.60577 297.892327,100.379753 C297.358126,100.153736 296.899115,99.8424722 296.515281,99.4459514 C296.131448,99.0494307 295.830717,98.5795606 295.613079,98.0363272 C295.395441,97.4930938 295.286624,96.9042693 295.286624,96.2698361 C295.286624,95.6036812 295.403355,94.9970136 295.636821,94.449815 C295.870287,93.9026163 296.186846,93.4347289 296.586508,93.0461385 C296.98617,92.6575482 297.451116,92.3561969 297.98136,92.1420757 C298.511605,91.9279545 299.06954,91.8208955 299.655183,91.8208955 C300.232912,91.8208955 300.784912,91.9279545 301.311199,92.1420757 C301.837487,92.3561969 302.300454,92.6575482 302.700116,93.0461385 C303.099778,93.4347289 303.416337,93.9026163 303.649803,94.449815 C303.883269,94.9970136 304,95.6036812 304,96.2698361 Z M299.678925,96.0200293 C299.829293,96.0200293 299.973723,96.0140816 300.11222,96.0021859 C300.250717,95.9902903 300.371405,95.9565866 300.474288,95.9010737 C300.577171,95.8455607 300.660268,95.7682404 300.723581,95.6691102 C300.786894,95.56998 300.818549,95.4292172 300.818549,95.2468177 C300.818549,95.0961398 300.784915,94.9771854 300.717645,94.8899508 C300.650375,94.8027162 300.5653,94.7353087 300.462417,94.6877262 C300.359534,94.6401437 300.244781,94.6104051 300.118155,94.5985095 C299.99153,94.5866139 299.868863,94.5806662 299.750152,94.5806662 L298.776723,94.5806662 L298.776723,96.0200293 L299.678925,96.0200293 Z M298.776723,98.8154866 L297.969489,98.8154866 L297.969489,93.8907235 L299.833249,93.8907235 C300.426807,93.8907235 300.873946,94.0017476 301.174682,94.2237993 C301.475418,94.4458509 301.625783,94.8066794 301.625783,95.3062955 C301.625783,95.7503987 301.503117,96.0755409 301.25778,96.2817317 C301.012443,96.4879225 300.707754,96.610842 300.343706,96.6504941 L301.720752,98.8154866 L300.806678,98.8154866 L299.536472,96.7099719 L298.776723,96.7099719 L298.776723,98.8154866 Z" id="®"></path>
        </g>
    </g>
</svg>